<?xml version="1.0" encoding="UTF-8" standalone="no"?>
<svg
   xmlns:dc="http://purl.org/dc/elements/1.1/"
   xmlns:cc="http://creativecommons.org/ns#"
   xmlns:rdf="http://www.w3.org/1999/02/22-rdf-syntax-ns#"
   xmlns:svg="http://www.w3.org/2000/svg"
   xmlns="http://www.w3.org/2000/svg"
   height="512px"
   width="512px"
   xml:space="preserve"
   style="enable-background:new 0 0 49.94 49.94;"
   viewBox="0 0 49.94 49.94"
   y="0px"
   x="0px"
   id="Capa_1"
   version="1.1"><metadata
   id="metadata39"><rdf:RDF><cc:Work
       rdf:about=""><dc:format>image/svg+xml</dc:format><dc:type
         rdf:resource="http://purl.org/dc/dcmitype/StillImage" /><dc:title></dc:title></cc:Work></rdf:RDF></metadata><defs
   id="defs37" />
<path
   style="fill:#ffffff"
   id="star"
   d="m 48.856,22.73 c 0.983,-0.958 1.33,-2.364 0.906,-3.671 -0.425,-1.307 -1.532,-2.24 -2.892,-2.438 L 34.778,14.864 c -0.515,-0.075 -0.96,-0.398 -1.19,-0.865 L 28.182,3.043 C 27.575,1.812 26.343,1.047 24.97,1.047 c -1.372,0 -2.604,0.765 -3.211,1.996 L 16.352,14 c -0.23,0.467 -0.676,0.79 -1.191,0.865 L 3.069,16.622 C 1.71,16.819 0.602,17.753 0.177,19.06 -0.247,20.367 0.1,21.773 1.083,22.731 l 8.749,8.528 c 0.373,0.364 0.544,0.888 0.456,1.4 L 8.224,44.701 c -0.183,1.06 0.095,2.091 0.781,2.904 1.066,1.267 2.927,1.653 4.415,0.871 L 24.234,42.79 c 0.452,-0.237 1.021,-0.235 1.472,0 l 10.815,5.686 c 0.526,0.277 1.087,0.417 1.666,0.417 1.057,0 2.059,-0.47 2.748,-1.288 0.687,-0.813 0.964,-1.846 0.781,-2.904 L 39.651,32.659 c -0.088,-0.513 0.083,-1.036 0.456,-1.4 z" />
<g
   id="g4">
</g>
<g
   id="g6">
</g>
<g
   id="g8">
</g>
<g
   id="g10">
</g>
<g
   id="g12">
</g>
<g
   id="g14">
</g>
<g
   id="g16">
</g>
<g
   id="g18">
</g>
<g
   id="g20">
</g>
<g
   id="g22">
</g>
<g
   id="g24">
</g>
<g
   id="g26">
</g>
<g
   id="g28">
</g>
<g
   id="g30">
</g>
<g
   id="g32">
</g>
</svg>