<?xml version="1.0" encoding="UTF-8" standalone="no"?>
<!-- Generator: Adobe Illustrator 19.0.0, SVG Export Plug-In . SVG Version: 6.00 Build 0)  -->

<svg
   xmlns:dc="http://purl.org/dc/elements/1.1/"
   xmlns:cc="http://creativecommons.org/ns#"
   xmlns:rdf="http://www.w3.org/1999/02/22-rdf-syntax-ns#"
   xmlns:svg="http://www.w3.org/2000/svg"
   xmlns="http://www.w3.org/2000/svg"
   xmlns:sodipodi="http://sodipodi.sourceforge.net/DTD/sodipodi-0.dtd"
   xmlns:inkscape="http://www.inkscape.org/namespaces/inkscape"
   version="1.1"
   id="Capa_1"
   x="0px"
   y="0px"
   viewBox="0 0 512 512"
   xml:space="preserve"
   width="512"
   height="512"
   sodipodi:docname="icon-inkscape.svg"
   inkscape:version="0.92.3 (2405546, 2018-03-11)"><metadata
   id="metadata67"><rdf:RDF><cc:Work
       rdf:about=""><dc:format>image/svg+xml</dc:format><dc:type
         rdf:resource="http://purl.org/dc/dcmitype/StillImage" /><dc:title></dc:title></cc:Work></rdf:RDF></metadata><defs
   id="defs65" /><sodipodi:namedview
   pagecolor="#ffffff"
   bordercolor="#666666"
   borderopacity="1"
   objecttolerance="10"
   gridtolerance="10"
   guidetolerance="10"
   inkscape:pageopacity="0"
   inkscape:pageshadow="2"
   inkscape:window-width="1195"
   inkscape:window-height="1023"
   id="namedview63"
   showgrid="false"
   inkscape:zoom="0.4609375"
   inkscape:cx="-145.35593"
   inkscape:cy="169.22034"
   inkscape:window-x="99"
   inkscape:window-y="27"
   inkscape:window-maximized="0"
   inkscape:current-layer="Capa_1" />
<g
   id="g6">
	<g
   id="g4">
		<path
   d="m 256.299,118.741 c -83.556,0 -151.533,67.977 -151.533,151.533 0,83.556 67.978,151.534 151.533,151.534 83.555,0 151.534,-67.978 151.534,-151.534 0,-83.556 -67.978,-151.533 -151.534,-151.533 z m 0,283.066 c -72.528,0 -131.534,-59.006 -131.534,-131.534 0,-72.527 59.005,-131.533 131.534,-131.533 72.528,0 131.534,59.005 131.534,131.533 0,72.528 -59.006,131.534 -131.534,131.534 z"
   id="path2"
   inkscape:connector-curvature="0"
   style="fill:#ffffff" />
	</g>
</g>
<g
   id="g12">
	<g
   id="g10">
		<path
   d="m 346.001,221.394 c -2.647,-4.847 -8.721,-6.631 -13.569,-3.985 -0.162,0.089 -0.312,0.191 -0.468,0.287 -4.485,2.775 -6.075,8.597 -3.517,13.282 6.536,11.971 9.99,25.56 9.99,39.296 0,45.291 -36.847,82.138 -82.138,82.138 -45.292,0 -82.138,-36.848 -82.138,-82.138 0,-45.291 36.847,-82.138 82.138,-82.138 4.346,0 8.708,0.342 12.963,1.017 5.278,0.838 10.222,-2.618 11.329,-7.773 0.039,-0.179 0.084,-0.355 0.113,-0.539 0.864,-5.455 -2.857,-10.578 -8.312,-11.442 -5.288,-0.838 -10.703,-1.263 -16.094,-1.263 -56.318,0 -102.138,45.819 -102.138,102.138 0,56.319 45.819,102.138 102.138,102.138 56.319,0 102.139,-45.82 102.139,-102.138 0,-17.076 -4.3,-33.978 -12.436,-48.88 z"
   id="path8"
   inkscape:connector-curvature="0"
   style="fill:#ffffff" />
	</g>
</g>
<g
   id="g18">
	<g
   id="g16">
		<path
   d="m 320.19,186.712 c -0.46,-0.46 -0.97,-0.88 -1.52,-1.24 -0.54,-0.36 -1.12,-0.67 -1.73,-0.92 -0.6,-0.25 -1.23,-0.44 -1.87,-0.57 -1.29,-0.26 -2.62,-0.26 -3.91,0 -0.64,0.13 -1.26,0.32 -1.87,0.57 -0.6,0.25 -1.18,0.56 -1.72,0.92 -0.55,0.36 -1.06,0.78 -1.53,1.24 -0.46,0.46 -0.87,0.97 -1.24,1.52 -0.36,0.54 -0.67,1.12 -0.92,1.73 -0.158,0.378 -0.283,0.77 -0.392,1.167 -0.064,0.233 -0.129,0.466 -0.177,0.703 -0.129,0.639 -0.19,1.299 -0.19,1.949 0,0.66 0.06,1.311 0.19,1.961 0.13,0.64 0.32,1.26 0.57,1.869 0.25,0.601 0.56,1.181 0.92,1.721 0.37,0.55 0.78,1.06 1.24,1.52 0.47,0.46 0.98,0.88 1.53,1.25 0.54,0.36 1.12,0.67 1.72,0.92 0.61,0.25 1.23,0.44 1.87,0.57 0.65,0.13 1.31,0.189 1.96,0.189 0.65,0 1.31,-0.06 1.95,-0.189 0.64,-0.129 1.27,-0.32 1.87,-0.57 0.524,-0.215 1.019,-0.481 1.492,-0.778 0.078,-0.049 0.161,-0.091 0.237,-0.142 0.55,-0.37 1.06,-0.79 1.52,-1.25 0.46,-0.46 0.88,-0.97 1.24,-1.52 0.36,-0.54 0.67,-1.12 0.92,-1.721 0.25,-0.609 0.44,-1.239 0.57,-1.869 0.13,-0.65 0.2,-1.301 0.2,-1.961 0,-2.63 -1.07,-5.21 -2.93,-7.069 z"
   id="path14"
   inkscape:connector-curvature="0"
   style="fill:#ffffff" />
	</g>
</g>
<g
   id="g24">
	<g
   id="g22">
		<path
   d="M 511.744,413.487 479.31,149.342 C 477.053,130.958 471.28,113.463 462.15,97.345 456.546,87.45 449.738,78.249 441.916,69.997 l -0.873,-0.921 c -6.664,-7.031 -16.632,-8.905 -25.398,-4.774 -8.764,4.13 -13.664,13.013 -12.483,22.629 l 41.113,334.841 c 0.132,1.075 0.313,2.132 0.541,3.17 3.416,15.563 17.316,26.68 33.169,26.678 1.375,0 2.768,-0.083 4.166,-0.255 11.044,-1.356 20.211,-7.897 25.358,-16.882 0.542,-0.946 1.039,-1.918 1.489,-2.915 0.45,-0.997 0.853,-2.017 1.207,-3.059 1.593,-4.686 2.181,-9.791 1.539,-15.022 z M 423.014,84.493 c -0.049,-0.401 -0.18,-1.47 1.159,-2.101 0.367,-0.173 0.689,-0.24 0.969,-0.24 0.741,0 1.186,0.47 1.386,0.682 l 0.873,0.921 c 6.708,7.076 12.544,14.964 17.348,23.446 7.827,13.818 12.777,28.817 14.712,44.578 l 17.286,140.78 -27.767,3.409 z m 68.014,338.25 c -1.823,4.616 -6.049,8.124 -11.312,8.77 -7.659,0.946 -14.649,-4.523 -15.589,-12.179 l -12.71,-103.515 27.767,-3.409 12.71,103.515 c 0.294,2.391 -0.039,4.719 -0.866,6.818 z"
   id="path20"
   inkscape:connector-curvature="0"
   style="fill:#ffffff" />
	</g>
</g>
<g
   id="g30">
	<g
   id="g28">
		<path
   d="m 123.326,71.73 c -5.484,-0.676 -10.471,3.226 -11.144,8.707 l -9.095,74.072 c -1.418,11.544 -10.747,20.253 -22.292,20.957 L 74.166,174.652 86.127,77.239 C 86.8,71.758 82.902,66.768 77.42,66.094 71.937,65.415 66.949,69.32 66.276,74.801 L 54.315,172.214 47.68,171.4 C 36.65,167.922 29.707,157.216 31.124,145.673 l 9.095,-74.071 c 0.673,-5.481 -3.225,-10.471 -8.707,-11.145 -5.481,-0.68 -10.471,3.226 -11.144,8.707 l -9.095,74.071 c -2.275,18.533 7.184,35.909 23.14,44.243 L 0.393,406.415 c -0.004,0.024 -0.008,0.05 -0.012,0.075 -1.381,9.359 1.016,18.658 6.749,26.183 5.733,7.525 14.062,12.305 23.444,13.457 l 0.182,0.022 c 1.449,0.178 2.895,0.266 4.33,0.266 7.909,0 15.512,-2.674 21.774,-7.726 7.399,-5.969 11.949,-14.47 12.812,-23.937 L 89.78,194.278 c 17.5,-4.225 30.884,-18.797 33.159,-37.331 l 9.095,-74.072 c 0.672,-5.481 -3.226,-10.471 -8.708,-11.145 z m -73.57,341.21 c -0.368,4.029 -2.304,7.646 -5.453,10.187 -3.149,2.541 -7.091,3.675 -11.102,3.176 l -0.182,-0.022 c -3.996,-0.49 -7.541,-2.524 -9.98,-5.727 -2.434,-3.194 -3.455,-7.139 -2.877,-11.111 l 33.741,-217.128 7.891,0.969 c 0.004,0 0.007,0.001 0.011,0.002 0.003,0 0.006,0 0.009,0 l 7.885,0.968 z"
   id="path26"
   inkscape:connector-curvature="0"
   style="fill:#ffffff" />
	</g>
</g>
<g
   id="g32">
</g>
<g
   id="g34">
</g>
<g
   id="g36">
</g>
<g
   id="g38">
</g>
<g
   id="g40">
</g>
<g
   id="g42">
</g>
<g
   id="g44">
</g>
<g
   id="g46">
</g>
<g
   id="g48">
</g>
<g
   id="g50">
</g>
<g
   id="g52">
</g>
<g
   id="g54">
</g>
<g
   id="g56">
</g>
<g
   id="g58">
</g>
<g
   id="g60">
</g>
</svg>