<?xml version="1.0" encoding="UTF-8" standalone="no"?>
<svg
   xmlns:dc="http://purl.org/dc/elements/1.1/"
   xmlns:cc="http://creativecommons.org/ns#"
   xmlns:rdf="http://www.w3.org/1999/02/22-rdf-syntax-ns#"
   xmlns:svg="http://www.w3.org/2000/svg"
   xmlns="http://www.w3.org/2000/svg"
   version="1.1"
   id="Capa_1"
   x="0px"
   y="0px"
   width="512px"
   height="512px"
   viewBox="0 0 495.322 495.322"
   style="enable-background:new 0 0 495.322 495.322;"
   xml:space="preserve"><metadata
   id="metadata51"><rdf:RDF><cc:Work
       rdf:about=""><dc:format>image/svg+xml</dc:format><dc:type
         rdf:resource="http://purl.org/dc/dcmitype/StillImage" /><dc:title></dc:title></cc:Work></rdf:RDF></metadata><defs
   id="defs49">
	

		
	
			
			
			
			
		</defs>
<path
   d="m 168.201,170.967 c -32.633,0 -63.301,12.705 -86.354,35.776 -23.09,23.066 -35.799,53.742 -35.799,86.367 0,17.589 3.807,34.568 10.836,50.139 L 12.673,387.451 C 4.578,395.562 0,406.561 0,418.031 c 0,11.472 4.578,22.471 12.705,30.601 16.898,16.895 44.275,16.895 61.174,0 l 44.211,-44.193 c 15.574,7.018 32.539,10.819 50.111,10.819 32.639,0 63.301,-12.705 86.358,-35.776 23.091,-23.065 35.796,-53.743 35.796,-86.367 0,-32.621 -12.705,-63.291 -35.796,-86.367 -23.057,-23.076 -53.719,-35.781 -86.358,-35.781 z m 51.342,173.489 c -13.707,13.716 -31.924,21.268 -51.342,21.268 -19.381,0 -37.631,-7.551 -51.336,-21.267 C 103.127,330.736 95.58,312.51 95.58,293.11 c 0,-19.398 7.547,-37.626 21.285,-51.346 13.705,-13.715 31.924,-21.266 51.336,-21.266 19.418,0 37.635,7.551 51.342,21.266 13.738,13.72 21.279,31.956 21.279,51.346 0,19.401 -7.541,37.628 -21.279,51.346 z m 105.256,-152.99 -122.77,-59.147 c -2.191,-1.064 -4.803,-0.918 -6.9,0.389 -2.096,1.304 -3.354,3.594 -3.354,6.054 v 9.479 c 30.281,4.861 58.206,18.897 80.299,40.996 27.762,27.75 43.049,64.639 43.049,103.876 0,11.658 -1.518,23.049 -4.131,34.11 l 7.578,3.659 c 2.229,1.062 4.84,0.92 6.905,-0.387 2.093,-1.308 3.354,-3.596 3.354,-6.056 v -126.53 c 10e-4,-2.739 -1.579,-5.248 -4.03,-6.443 z m 167.168,-58.759 c -2.062,-1.307 -4.678,-1.453 -6.898,-0.389 l -122.732,59.147 c -2.48,1.194 -4.062,3.704 -4.062,6.442 v 126.529 c 0,2.46 1.258,4.75 3.354,6.057 2.097,1.307 4.705,1.45 6.9,0.387 l 122.764,-59.149 c 2.451,-1.193 4.031,-3.703 4.031,-6.441 V 138.76 c -0.004,-2.46 -1.26,-4.75 -3.357,-6.053 z m -6.707,-30.176 c 0,-2.797 -1.643,-5.346 -4.191,-6.509 L 346.532,34.666 c -1.902,-0.862 -4.063,-0.862 -5.938,0 L 206.06,96.022 c -2.545,1.163 -4.193,3.712 -4.193,6.509 0,2.797 1.648,5.345 4.193,6.505 l 134.535,61.356 c 1.873,0.866 4.033,0.866 5.938,0 l 134.535,-61.356 c 2.549,-1.161 4.192,-3.708 4.192,-6.505 z"
   style="fill:#ffffff"
   id="search" />
<g
   id="g16">
</g>
<g
   id="g18">
</g>
<g
   id="g20">
</g>
<g
   id="g22">
</g>
<g
   id="g24">
</g>
<g
   id="g26">
</g>
<g
   id="g28">
</g>
<g
   id="g30">
</g>
<g
   id="g32">
</g>
<g
   id="g34">
</g>
<g
   id="g36">
</g>
<g
   id="g38">
</g>
<g
   id="g40">
</g>
<g
   id="g42">
</g>
<g
   id="g44">
</g>
</svg>