<?xml version="1.0" encoding="UTF-8" standalone="no"?>
<svg
   xmlns:dc="http://purl.org/dc/elements/1.1/"
   xmlns:cc="http://creativecommons.org/ns#"
   xmlns:rdf="http://www.w3.org/1999/02/22-rdf-syntax-ns#"
   xmlns:svg="http://www.w3.org/2000/svg"
   xmlns="http://www.w3.org/2000/svg"
   id="svg4"
   version="1.1"
   width="512px"
   viewBox="-5 0 394 394.00003"
   height="512px">
  <metadata
     id="metadata10">
    <rdf:RDF>
      <cc:Work
         rdf:about="">
        <dc:format>image/svg+xml</dc:format>
        <dc:type
           rdf:resource="http://purl.org/dc/dcmitype/StillImage" />
        <dc:title></dc:title>
      </cc:Work>
    </rdf:RDF>
  </metadata>
  <defs
     id="defs8" />
  <path
     style="fill:#ffffff"
     id="funnel"
     d="M 367.82031,0 H 16.558594 C 10.359375,-0.0117188 4.679688,3.449219 1.847656,8.960938 -1.023438,14.546875 -0.519531,21.273438 3.148438,26.375 L 131.83594,207.66016 c 0.043,0.0625 0.0898,0.12109 0.13281,0.18359 4.67578,6.3125 7.20703,13.96094 7.21875,21.81641 v 147.80078 c -0.0273,4.375 1.69141,8.58203 4.77344,11.6875 3.08594,3.10156 7.28125,4.85156 11.65625,4.85156 2.22265,-0.004 4.42578,-0.44531 6.48047,-1.30078 l 72.3125,-27.57031 c 6.47656,-1.98047 10.77734,-8.09375 10.77734,-15.45313 V 229.66016 c 0.0117,-7.85547 2.54297,-15.50391 7.21484,-21.81641 0.043,-0.0625 0.0898,-0.12109 0.13282,-0.18359 L 381.22656,26.371094 c 3.66797,-5.097656 4.17188,-11.820313 1.30078,-17.40625 C 379.69922,3.449219 374.01563,-0.0117188 367.82031,0 Z m 0,0" />
</svg>
