<?xml version="1.0" encoding="UTF-8" standalone="no"?>
<!-- Generator: Adobe Illustrator 19.0.0, SVG Export Plug-In . SVG Version: 6.00 Build 0)  -->

<svg
   xmlns:dc="http://purl.org/dc/elements/1.1/"
   xmlns:cc="http://creativecommons.org/ns#"
   xmlns:rdf="http://www.w3.org/1999/02/22-rdf-syntax-ns#"
   xmlns:svg="http://www.w3.org/2000/svg"
   xmlns="http://www.w3.org/2000/svg"
   xmlns:sodipodi="http://sodipodi.sourceforge.net/DTD/sodipodi-0.dtd"
   xmlns:inkscape="http://www.inkscape.org/namespaces/inkscape"
   version="1.1"
   id="Capa_1"
   x="0px"
   y="0px"
   viewBox="0 0 512 512"
   style="enable-background:new 0 0 512 512;"
   xml:space="preserve"
   width="512px"
   height="512px"
   sodipodi:docname="icon-inkscape.svg"
   inkscape:version="0.92.3 (2405546, 2018-03-11)"><metadata
   id="metadata67"><rdf:RDF><cc:Work
       rdf:about=""><dc:format>image/svg+xml</dc:format><dc:type
         rdf:resource="http://purl.org/dc/dcmitype/StillImage" /><dc:title></dc:title></cc:Work></rdf:RDF></metadata><defs
   id="defs65" /><sodipodi:namedview
   pagecolor="#ffffff"
   bordercolor="#666666"
   borderopacity="1"
   objecttolerance="10"
   gridtolerance="10"
   guidetolerance="10"
   inkscape:pageopacity="0"
   inkscape:pageshadow="2"
   inkscape:window-width="775"
   inkscape:window-height="480"
   id="namedview63"
   showgrid="false"
   inkscape:zoom="0.4609375"
   inkscape:cx="256"
   inkscape:cy="256"
   inkscape:window-x="67"
   inkscape:window-y="27"
   inkscape:window-maximized="0"
   inkscape:current-layer="Capa_1" />
<g
   id="g6">
	<g
   id="g4">
		<path
   d="M256.299,118.741c-83.556,0-151.533,67.977-151.533,151.533s67.978,151.534,151.533,151.534    s151.534-67.978,151.534-151.534S339.855,118.741,256.299,118.741z M256.299,401.807c-72.528,0-131.534-59.006-131.534-131.534    c0-72.527,59.005-131.533,131.534-131.533c72.528,0,131.534,59.005,131.534,131.533S328.827,401.807,256.299,401.807z"
   fill="#FFFFFF"
   id="path2" />
	</g>
</g>
<g
   id="g12">
	<g
   id="g10">
		<path
   d="M346.001,221.394c-2.647-4.847-8.721-6.631-13.569-3.985c-0.162,0.089-0.312,0.191-0.468,0.287    c-4.485,2.775-6.075,8.597-3.517,13.282c6.536,11.971,9.99,25.56,9.99,39.296c0,45.291-36.847,82.138-82.138,82.138    c-45.292,0-82.138-36.848-82.138-82.138c0-45.291,36.847-82.138,82.138-82.138c4.346,0,8.708,0.342,12.963,1.017    c5.278,0.838,10.222-2.618,11.329-7.773c0.039-0.179,0.084-0.355,0.113-0.539c0.864-5.455-2.857-10.578-8.312-11.442    c-5.288-0.838-10.703-1.263-16.094-1.263c-56.318,0-102.138,45.819-102.138,102.138s45.819,102.138,102.138,102.138    s102.139-45.82,102.139-102.138C358.437,253.198,354.137,236.296,346.001,221.394z"
   fill="#FFFFFF"
   id="path8" />
	</g>
</g>
<g
   id="g18">
	<g
   id="g16">
		<path
   d="M320.19,186.712c-0.46-0.46-0.97-0.88-1.52-1.24c-0.54-0.36-1.12-0.67-1.73-0.92c-0.6-0.25-1.23-0.44-1.87-0.57    c-1.29-0.26-2.62-0.26-3.91,0c-0.64,0.13-1.26,0.32-1.87,0.57c-0.6,0.25-1.18,0.56-1.72,0.92c-0.55,0.36-1.06,0.78-1.53,1.24    c-0.46,0.46-0.87,0.97-1.24,1.52c-0.36,0.54-0.67,1.12-0.92,1.73c-0.158,0.378-0.283,0.77-0.392,1.167    c-0.064,0.233-0.129,0.466-0.177,0.703c-0.129,0.639-0.19,1.299-0.19,1.949c0,0.66,0.06,1.311,0.19,1.961    c0.13,0.64,0.32,1.26,0.57,1.869c0.25,0.601,0.56,1.181,0.92,1.721c0.37,0.55,0.78,1.06,1.24,1.52c0.47,0.46,0.98,0.88,1.53,1.25    c0.54,0.36,1.12,0.67,1.72,0.92c0.61,0.25,1.23,0.44,1.87,0.57c0.65,0.13,1.31,0.189,1.96,0.189c0.65,0,1.31-0.06,1.95-0.189    c0.64-0.129,1.27-0.32,1.87-0.57c0.524-0.215,1.019-0.481,1.492-0.778c0.078-0.049,0.161-0.091,0.237-0.142    c0.55-0.37,1.06-0.79,1.52-1.25c0.46-0.46,0.88-0.97,1.24-1.52c0.36-0.54,0.67-1.12,0.92-1.721c0.25-0.609,0.44-1.239,0.57-1.869    c0.13-0.65,0.2-1.301,0.2-1.961C323.12,191.151,322.05,188.571,320.19,186.712z"
   fill="#FFFFFF"
   id="path14" />
	</g>
</g>
<g
   id="g24">
	<g
   id="g22">
		<path
   d="M511.744,413.487l-32.434-264.145c-2.257-18.384-8.03-35.879-17.16-51.997c-5.604-9.895-12.412-19.096-20.234-27.348    l-0.873-0.921c-6.664-7.031-16.632-8.905-25.398-4.774c-8.764,4.13-13.664,13.013-12.483,22.629l41.113,334.841    c0.132,1.075,0.313,2.132,0.541,3.17c3.416,15.563,17.316,26.68,33.169,26.678c1.375,0,2.768-0.083,4.166-0.255    c11.044-1.356,20.211-7.897,25.358-16.882c0.542-0.946,1.039-1.918,1.489-2.915c0.45-0.997,0.853-2.017,1.207-3.059    C511.798,423.823,512.386,418.718,511.744,413.487z M423.014,84.493c-0.049-0.401-0.18-1.47,1.159-2.101    c0.367-0.173,0.689-0.24,0.969-0.24c0.741,0,1.186,0.47,1.386,0.682l0.873,0.921c6.708,7.076,12.544,14.964,17.348,23.446    c7.827,13.818,12.777,28.817,14.712,44.578l17.286,140.78l-27.767,3.409L423.014,84.493z M491.028,422.743    c-1.823,4.616-6.049,8.124-11.312,8.77c-7.659,0.946-14.649-4.523-15.589-12.179l-12.71-103.515l27.767-3.409l12.71,103.515    C492.188,418.316,491.855,420.644,491.028,422.743z"
   fill="#FFFFFF"
   id="path20" />
	</g>
</g>
<g
   id="g30">
	<g
   id="g28">
		<path
   d="M123.326,71.73c-5.484-0.676-10.471,3.226-11.144,8.707l-9.095,74.072c-1.418,11.544-10.747,20.253-22.292,20.957    l-6.629-0.814l11.961-97.413c0.673-5.481-3.225-10.471-8.707-11.145c-5.483-0.679-10.471,3.226-11.144,8.707l-11.961,97.413    l-6.635-0.814c-11.03-3.478-17.973-14.184-16.556-25.727l9.095-74.071c0.673-5.481-3.225-10.471-8.707-11.145    c-5.481-0.68-10.471,3.226-11.144,8.707l-9.095,74.071c-2.275,18.533,7.184,35.909,23.14,44.243L0.393,406.415    c-0.004,0.024-0.008,0.05-0.012,0.075C-1,415.849,1.397,425.148,7.13,432.673c5.733,7.525,14.062,12.305,23.444,13.457    l0.182,0.022c1.449,0.178,2.895,0.266,4.33,0.266c7.909,0,15.512-2.674,21.774-7.726c7.399-5.969,11.949-14.47,12.812-23.937    l20.108-220.477c17.5-4.225,30.884-18.797,33.159-37.331l9.095-74.072C132.706,77.394,128.808,72.404,123.326,71.73z     M49.756,412.94c-0.368,4.029-2.304,7.646-5.453,10.187c-3.149,2.541-7.091,3.675-11.102,3.176l-0.182-0.022    c-3.996-0.49-7.541-2.524-9.98-5.727c-2.434-3.194-3.455-7.139-2.877-11.111l33.741-217.128l7.891,0.969    c0.004,0,0.007,0.001,0.011,0.002c0.003,0,0.006,0,0.009,0l7.885,0.968L49.756,412.94z"
   fill="#FFFFFF"
   id="path26" />
	</g>
</g>
<g
   id="g32">
</g>
<g
   id="g34">
</g>
<g
   id="g36">
</g>
<g
   id="g38">
</g>
<g
   id="g40">
</g>
<g
   id="g42">
</g>
<g
   id="g44">
</g>
<g
   id="g46">
</g>
<g
   id="g48">
</g>
<g
   id="g50">
</g>
<g
   id="g52">
</g>
<g
   id="g54">
</g>
<g
   id="g56">
</g>
<g
   id="g58">
</g>
<g
   id="g60">
</g>
</svg>